<?xml version="1.0" encoding="UTF-8"?>
<svg id="Layer_2" data-name="Layer 2" xmlns="http://www.w3.org/2000/svg" xmlns:xlink="http://www.w3.org/1999/xlink" viewBox="0 0 193.64 61.92">
  <defs>
    <style>
      .cls-1 {
        fill: url(#linear-gradient);
        stroke-width: 0px;
      }

      .cls-2 {
        filter: url(#drop-shadow-1);
      }
    </style>
    <filter id="drop-shadow-1" filterUnits="userSpaceOnUse">
      <feOffset dx="3" dy="4"/>
      <feGaussianBlur result="blur" stdDeviation="5"/>
      <feFlood flood-color="#000" flood-opacity=".26"/>
      <feComposite in2="blur" operator="in"/>
      <feComposite in="SourceGraphic"/>
    </filter>
    <linearGradient id="linear-gradient" x1="0" y1="30.96" x2="193.64" y2="30.96" gradientUnits="userSpaceOnUse">
      <stop offset="0" stop-color="#2d87bd"/>
      <stop offset=".26" stop-color="#2378ca"/>
      <stop offset="1" stop-color="#34abb3"/>
    </linearGradient>
  </defs>
  <g id="Layer_1-2" data-name="Layer 1">
    <g class="cls-2">
      <path class="cls-1" d="M103.73,35.64c-6.55,0-13.1.06-19.65-.04-1.8-.03-1.92.53-1.44,2.06,2.12,6.87,7.86,10.96,15.95,11.13,5.75.12,11.11-1.23,15.98-4.39,2.23-1.45,4.63-1.77,6.98-.31,2.29,1.42,3.29,3.63,3.15,6.29-.13,2.4-1.6,4.03-3.37,5.47-4.12,3.36-9.89,4.64-15.03,5.47-5.86.95-11.9.87-17.62-.8-11.84-3.47-19.98-11.5-21.77-24.59-1.55-11.35,1.47-21.23,10.1-29.03,4.31-3.9,9.69-5.67,15.32-6.4,7.68-.99,15.17-.39,22.2,3.43,9.12,4.95,15.34,17.07,13.77,27.32-.47,3.07-1.8,4.34-4.93,4.36-6.55.05-13.1.02-19.65.02,0,0,0,.01,0,.02ZM81.83,24.83c10.09,0,20.19.02,30.28,0,.23,0,.47,0,.67-.11.3-.16.43-.53.41-.87-.17-3.21-2.92-7.23-5.64-8.77-4.28-2.43-9.73-3.23-14.54-1.95-5.96,1.58-9.09,6.19-11.18,11.7ZM59.85,40.07c0-4.51.17-9.03-.04-13.53C58.73,4.14,35.24-5.25,16.36,2.9,8,6.51,1.47,13.69.56,22.98c-1.04,10.6-.31,21.25-.4,31.88-.02,2.65,1.08,5.28,3.63,6.13,6.78,2.27,11.62-1.47,11.62-7.68,0-8.17-.08-16.34.04-24.5.09-6.64,4.68-12.36,11.09-14.04,6.8-1.78,15.38,1.5,16.97,8.92.65,3.04,1,6.09.97,9.21-.07,6.89-.02,13.78.02,20.68.01,2.41.43,4.89,2.35,6.42,2.53,2.01,5.58,2.09,8.59.96,3.13-1.18,4.44-3.64,4.47-6.84.05-4.68.01-9.36.01-14.04-.03,0-.05,0-.08,0ZM188.7.19h-13.79c-.66,0-1.28.35-1.61.93l-6.37,11.02c-1.05,1.82-1.42,3.93-.2,5.64l6.1,10.99,17.41-25.67c.84-1.24-.05-2.91-1.54-2.91ZM161.32,17l-9.82-15.89c-.34-.57-.95-.92-1.62-.92h-17.41c-1.52,0-2.41,1.7-1.55,2.95l17.45,25.25c.67.96.67,2.24.02,3.21l-18.41,27.27c-.84,1.25.05,2.93,1.56,2.93h14.16c.64,0,1.24-.33,1.58-.87l11.87-18.54,7.27-10.12c2-1.99,2.17-5.18.39-7.37l-5.5-7.91ZM172.83,28.77l-8.7,11.33c-1.37,1.49-2.19,5.14-1.18,6.89l7.78,13.53c.46.79,1.3,1.28,2.21,1.28h18.82c1.5,0,2.38-1.67,1.54-2.91l-20.48-30.12Z"/>
    </g>
  </g>
</svg>